# xmcd
#
# Track frame offsets:
#	150
#	18280
#	37021
#	54271
#	67720
#	87348
#	105303
#	123296
#	139433
#	157228
#
# Disc length: 2437 seconds
#
# Revision: 1
# Processed by: cddbd v1.5.2PL0 Copyright (c) Steve Scherf et al.
# Submitted via: audiograbber 1.83.01
#
DISCID=7d09830a
DTITLE=Füenf - SINGEN Kriwanek
DYEAR=2013
DGENRE=A Cappella
TTITLE0=Stroßaboh
TTITLE1=Angst vorm Fliega
TTITLE2=Reggae di uf
TTITLE3=Herbertstroß
TTITLE4=Easy Rider
TTITLE5=Hefeteig (live)
TTITLE6=Halbzeit
TTITLE7=Knallroter Porsche
TTITLE8=Enne Denne Dubbe Denne
TTITLE9=UFO (live)
EXTD=
EXTT0=
EXTT1=
EXTT2=
EXTT3=
EXTT4=
EXTT5=
EXTT6=
EXTT7=
EXTT8=
EXTT9=
PLAYORDER=
